<svg width="172" height="172" viewBox="0 0 172 172" fill="none" xmlns="http://www.w3.org/2000/svg">
<path d="M44.9431 158.205C43.6994 158.257 42.4876 157.77 41.5737 156.85C40.6599 155.93 40.1187 154.653 40.0692 153.3L35.7807 33.3475C35.7558 32.6769 35.8527 32.0076 36.0659 31.3778C36.279 30.7481 36.6042 30.1703 37.0229 29.6775C37.4415 29.1848 37.9454 28.7868 38.5056 28.5063C39.0658 28.2258 39.6714 28.0683 40.2876 28.0429L145.019 23.6031C145.636 23.5767 146.251 23.6828 146.83 23.9153C147.408 24.1479 147.939 24.5023 148.392 24.9584C148.844 25.4144 149.21 25.9631 149.468 26.5731C149.725 27.1831 149.87 27.8424 149.893 28.5132L154.149 147.505C154.207 149.113 153.676 150.68 152.672 151.862C151.668 153.043 150.274 153.742 148.797 153.806L44.9431 158.205Z" fill="#F3F1EC"/>
<path d="M44.7574 159.151C43.3181 159.152 41.934 158.547 40.8949 157.464C39.8557 156.38 39.2419 154.9 39.1819 153.335L34.9027 33.3829C34.8486 31.7791 35.3805 30.2174 36.3818 29.0394C37.3832 27.8614 38.7726 27.1631 40.2459 27.0973L144.968 22.6523C146.44 22.5948 147.874 23.1736 148.955 24.2622C150.036 25.3509 150.677 26.8609 150.739 28.4626L154.995 147.459C155.06 149.316 154.446 151.126 153.286 152.49C152.127 153.855 150.517 154.662 148.811 154.736L44.9805 159.135L44.7574 159.151ZM145.187 24.5436H145.02L40.3063 28.9835C39.2923 29.0269 38.3356 29.5067 37.6465 30.3174C36.9573 31.1281 36.5921 32.2034 36.6311 33.307L40.9428 153.259C40.9827 154.364 41.4241 155.407 42.1698 156.158C42.9156 156.909 43.9048 157.307 44.9201 157.264L148.737 152.865C149.983 152.812 151.16 152.224 152.009 151.229C152.859 150.233 153.311 148.913 153.267 147.555L149.011 28.5637C148.972 27.4878 148.553 26.4698 147.84 25.7232C147.127 24.9766 146.176 24.5593 145.187 24.5588V24.5436Z" fill="#DDD8CB"/>
<path d="M122.717 147.808H33.6759C32.4309 147.808 31.2368 147.27 30.356 146.313C29.4752 145.355 28.9797 144.056 28.9785 142.701V22.6525C28.9785 21.9811 29.1 21.3163 29.3361 20.696C29.5721 20.0758 29.9182 19.5122 30.3543 19.0374C30.7905 18.5627 31.3084 18.1861 31.8783 17.9292C32.4482 17.6723 33.059 17.54 33.6759 17.54H138.468C139.713 17.5414 140.907 18.0806 141.787 19.0392C142.667 19.9978 143.161 21.2974 143.161 22.6525V124.471L122.717 147.808Z" fill="white"/>
<path d="M122.717 148.749H33.6761C32.1974 148.749 30.7792 148.11 29.7336 146.972C28.688 145.834 28.1006 144.29 28.1006 142.681V22.6526C28.1006 21.0433 28.688 19.4998 29.7336 18.3618C30.7792 17.2238 32.1974 16.5845 33.6761 16.5845H138.468C139.947 16.5845 141.365 17.2238 142.411 18.3618C143.456 19.4998 144.044 21.0433 144.044 22.6526V124.471C144.045 124.714 143.96 124.947 143.807 125.124L123.363 148.461C123.279 148.554 123.179 148.628 123.068 148.678C122.957 148.727 122.837 148.752 122.717 148.749ZM33.6761 18.4858C32.6599 18.4872 31.6856 18.9271 30.967 19.7092C30.2484 20.4913 29.8442 21.5517 29.8429 22.6577V142.701C29.8454 143.806 30.2502 144.865 30.9687 145.646C31.6871 146.427 32.6607 146.867 33.6761 146.868H122.36L142.297 124.112V22.6526C142.296 21.5475 141.892 20.4879 141.174 19.7059C140.457 18.924 139.484 18.4834 138.468 18.4808L33.6761 18.4858Z" fill="#DDD8CB"/>
<path d="M122.717 147.808V129.796C122.717 129.156 122.833 128.522 123.058 127.931C123.283 127.34 123.613 126.803 124.029 126.351C124.445 125.899 124.939 125.54 125.483 125.296C126.026 125.051 126.608 124.926 127.196 124.926H143.161L122.717 147.808Z" fill="#DDD8CB"/>
<path d="M122.718 148.749C122.604 148.75 122.491 148.727 122.386 148.68C122.28 148.633 122.184 148.564 122.104 148.476C122.023 148.389 121.96 148.284 121.917 148.17C121.874 148.055 121.852 147.932 121.854 147.808V129.796C121.855 128.254 122.418 126.776 123.42 125.685C124.422 124.595 125.78 123.982 127.197 123.98H143.161C143.332 123.981 143.498 124.036 143.64 124.139C143.782 124.241 143.893 124.387 143.96 124.558C144.026 124.729 144.045 124.917 144.014 125.099C143.982 125.282 143.902 125.45 143.784 125.583L123.34 148.465C123.26 148.556 123.163 148.628 123.056 148.677C122.949 148.726 122.834 148.75 122.718 148.749ZM127.197 125.867C126.239 125.868 125.321 126.282 124.644 127.019C123.966 127.755 123.584 128.754 123.582 129.796V145.472L141.098 125.851L127.197 125.867Z" fill="#DDD8CB"/>
<path d="M122.718 47.9921H72.5378C72.3189 47.9747 72.1142 47.8677 71.9648 47.6928C71.8155 47.5179 71.7324 47.2879 71.7324 47.049C71.7324 46.8102 71.8155 46.5802 71.9648 46.4053C72.1142 46.2303 72.3189 46.1234 72.5378 46.106H122.718C122.936 46.1234 123.141 46.2303 123.291 46.4053C123.44 46.5802 123.523 46.8102 123.523 47.049C123.523 47.2879 123.44 47.5179 123.291 47.6928C123.141 47.8677 122.936 47.9747 122.718 47.9921Z" fill="#DDD8CB"/>
<path d="M122.717 62.9297H50.1379C50.0188 62.9392 49.8991 62.9219 49.7864 62.8788C49.6737 62.8357 49.5704 62.7678 49.4829 62.6793C49.3954 62.5908 49.3256 62.4836 49.2779 62.3644C49.2302 62.2452 49.2056 62.1166 49.2056 61.9866C49.2056 61.8566 49.2302 61.728 49.2779 61.6089C49.3256 61.4897 49.3954 61.3825 49.4829 61.294C49.5704 61.2055 49.6737 61.1376 49.7864 61.0945C49.8991 61.0514 50.0188 61.034 50.1379 61.0435H122.717C122.936 61.061 123.141 61.1679 123.29 61.3429C123.44 61.5178 123.523 61.7478 123.523 61.9866C123.523 62.2255 123.44 62.4555 123.29 62.6304C123.141 62.8053 122.936 62.9123 122.717 62.9297Z" fill="#DDD8CB"/>
<path d="M122.717 77.8726H50.1379C50.0188 77.8821 49.8991 77.8648 49.7864 77.8217C49.6737 77.7786 49.5704 77.7107 49.4829 77.6222C49.3954 77.5337 49.3256 77.4265 49.2779 77.3073C49.2302 77.1881 49.2056 77.0595 49.2056 76.9295C49.2056 76.7995 49.2302 76.6709 49.2779 76.5517C49.3256 76.4325 49.3954 76.3254 49.4829 76.2368C49.5704 76.1483 49.6737 76.0804 49.7864 76.0373C49.8991 75.9943 50.0188 75.9769 50.1379 75.9864H122.717C122.936 76.0039 123.141 76.1108 123.29 76.2857C123.44 76.4607 123.523 76.6907 123.523 76.9295C123.523 77.1683 123.44 77.3983 123.29 77.5733C123.141 77.7482 122.936 77.8551 122.717 77.8726Z" fill="#DDD8CB"/>
<path d="M122.718 92.8103H50.1381C49.9089 92.8103 49.6891 92.7112 49.527 92.5349C49.365 92.3585 49.2739 92.1192 49.2739 91.8698C49.2739 91.6203 49.365 91.3811 49.527 91.2047C49.6891 91.0283 49.9089 90.9292 50.1381 90.9292H122.718C122.947 90.9292 123.167 91.0283 123.329 91.2047C123.491 91.3811 123.582 91.6203 123.582 91.8698C123.582 92.1192 123.491 92.3585 123.329 92.5349C123.167 92.7112 122.947 92.8103 122.718 92.8103Z" fill="#DDD8CB"/>
<path d="M122.717 107.753H50.1379C50.0188 107.763 49.8991 107.746 49.7864 107.703C49.6737 107.659 49.5704 107.592 49.4829 107.503C49.3954 107.415 49.3256 107.307 49.2779 107.188C49.2302 107.069 49.2056 106.94 49.2056 106.81C49.2056 106.68 49.2302 106.552 49.2779 106.433C49.3256 106.313 49.3954 106.206 49.4829 106.118C49.5704 106.029 49.6737 105.961 49.7864 105.918C49.8991 105.875 50.0188 105.858 50.1379 105.867H122.717C122.936 105.885 123.141 105.992 123.29 106.167C123.44 106.342 123.523 106.572 123.523 106.81C123.523 107.049 123.44 107.279 123.29 107.454C123.141 107.629 122.936 107.736 122.717 107.753Z" fill="#DDD8CB"/>
<path d="M94.9374 122.696H50.1379C50.0188 122.706 49.8991 122.689 49.7864 122.645C49.6737 122.602 49.5704 122.534 49.4829 122.446C49.3954 122.357 49.3256 122.25 49.2779 122.131C49.2302 122.012 49.2056 121.883 49.2056 121.753C49.2056 121.623 49.2302 121.495 49.2779 121.375C49.3256 121.256 49.3954 121.149 49.4829 121.061C49.5704 120.972 49.6737 120.904 49.7864 120.861C49.8991 120.818 50.0188 120.801 50.1379 120.81H94.9374C95.1562 120.828 95.3609 120.935 95.5103 121.109C95.6597 121.284 95.7427 121.514 95.7427 121.753C95.7427 121.992 95.6597 122.222 95.5103 122.397C95.3609 122.572 95.1562 122.679 94.9374 122.696Z" fill="#DDD8CB"/>
<path d="M58.4731 34.8292C56.3219 34.8292 54.1892 33.5043 53.7246 30.6371L50.9926 13.8232C50.8551 13.1039 50.8707 12.3599 51.0382 11.6482C51.2058 10.9365 51.5207 10.2759 51.959 9.71712C52.7882 8.72868 53.8943 8.0663 55.1052 7.83308C56.3161 7.59986 57.5639 7.80889 58.6543 8.42764C59.2421 8.79035 59.7463 9.29394 60.1287 9.90023C60.5111 10.5065 60.7616 11.1996 60.8613 11.9269L61.6187 16.5843C61.6587 16.8304 61.6073 17.0837 61.4757 17.2885C61.3441 17.4934 61.1432 17.6329 60.9171 17.6765C60.6909 17.7201 60.4582 17.6641 60.27 17.5209C60.0818 17.3777 59.9535 17.159 59.9135 16.9129L59.1561 12.2354C59.1011 11.7824 58.9504 11.3493 58.7158 10.9703C58.4812 10.5913 58.1691 10.2766 57.8041 10.0509C57.0638 9.64454 56.2227 9.50969 55.4062 9.66645C54.5897 9.8232 53.8418 10.2632 53.2739 10.9206C53.004 11.2705 52.8117 11.6832 52.7118 12.1269C52.6119 12.5706 52.6071 13.0334 52.6978 13.4794L55.4298 30.2932C55.7876 32.4929 57.5717 33.1655 59.1747 32.857C60.7777 32.5486 62.2459 31.249 61.8881 29.0493L61.3306 25.6106C61.3059 25.487 61.3044 25.3592 61.3261 25.2348C61.3479 25.1105 61.3925 24.9923 61.4572 24.8872C61.5219 24.782 61.6055 24.6922 61.7029 24.6231C61.8003 24.5539 61.9095 24.5069 62.0239 24.4848C62.1384 24.4626 62.2558 24.4659 62.3692 24.4943C62.4825 24.5227 62.5893 24.5757 62.6834 24.6502C62.7774 24.7246 62.8567 24.8189 62.9164 24.9275C62.9762 25.036 63.0152 25.1566 63.0311 25.2819L63.5933 28.7206C64.1323 32.0328 61.93 34.2426 59.4767 34.7129C59.1461 34.7846 58.8102 34.8235 58.4731 34.8292Z" fill="#DDD8CB"/>
<path d="M40.0257 117.902L29.5642 122.112L6.29757 64.2925C5.80491 63.0682 5.81878 61.6983 6.33612 60.4843C6.85346 59.2702 7.83189 58.3114 9.05617 57.8187L10.304 57.3166C11.5283 56.8239 12.8982 56.8378 14.1122 57.3551C15.3263 57.8725 16.2851 58.8509 16.7778 60.0752L40.0444 117.895L40.0257 117.902Z" fill="#F3F1EC"/>
<path d="M29.5397 123.07C29.3516 123.07 29.1679 123.013 29.012 122.908C28.8562 122.802 28.7353 122.653 28.6649 122.478L5.08503 63.9408C4.57594 62.6747 4.59038 61.2583 5.12518 60.0029C5.65998 58.7474 6.67137 57.7557 7.93707 57.2456L10.6172 56.1685C11.8833 55.6594 13.2997 55.6739 14.5551 56.2087C15.8106 56.7435 16.8023 57.7549 17.3124 59.0206L40.872 117.558C40.9661 117.788 40.9657 118.045 40.871 118.274C40.7763 118.503 40.5949 118.686 40.3663 118.782L29.8836 122.999C29.7746 123.045 29.6578 123.069 29.5397 123.07ZM12.559 57.6805C12.1411 57.6796 11.7272 57.7603 11.3403 57.9182L8.66019 58.9953C7.85842 59.3188 7.21789 59.9474 6.87938 60.7429C6.54087 61.5385 6.53207 62.4359 6.85491 63.2379L30.0606 120.885L38.7937 117.346L15.583 59.6982C15.4243 59.3003 15.1885 58.9377 14.8891 58.6313C14.5896 58.3249 14.2325 58.0808 13.8384 57.9131C13.4315 57.7516 12.9966 57.6725 12.559 57.6805Z" fill="#DDD8CB"/>
<path d="M29.5449 122.129L40.0226 117.912L41.1503 131.667L41.5801 136.916L38.2527 132.83L29.5449 122.129Z" fill="white"/>
<path d="M41.5799 137.861C41.4396 137.86 41.3013 137.828 41.1746 137.768C41.0479 137.708 40.936 137.62 40.8467 137.512L28.8115 122.721C28.7193 122.606 28.6549 122.472 28.6233 122.328C28.5917 122.184 28.5938 122.035 28.6294 121.892C28.6668 121.749 28.7371 121.617 28.8345 121.507C28.932 121.396 29.054 121.31 29.1907 121.255L39.6735 117.037C39.81 116.982 39.9575 116.96 40.1041 116.972C40.2508 116.984 40.3926 117.031 40.518 117.108C40.6435 117.187 40.749 117.293 40.8262 117.42C40.9035 117.546 40.9503 117.689 40.963 117.836L42.5053 136.84C42.5208 137.04 42.4717 137.241 42.3653 137.412C42.2589 137.583 42.1006 137.715 41.9136 137.79C41.8077 137.834 41.6945 137.858 41.5799 137.861ZM31.082 122.524L40.3915 133.967L39.188 119.262L31.082 122.524Z" fill="#DDD8CB"/>
<path d="M38.2529 132.83L41.1505 131.667L41.5803 136.915L38.2529 132.83Z" fill="#DDD8CB"/>
<path d="M41.5801 137.861C41.4398 137.86 41.3015 137.828 41.1748 137.768C41.0481 137.707 40.9362 137.62 40.8468 137.512L37.5195 133.426C37.4265 133.311 37.3617 133.176 37.3302 133.032C37.2988 132.888 37.3016 132.738 37.3385 132.595C37.3754 132.452 37.4453 132.319 37.5426 132.208C37.6398 132.097 37.7618 132.01 37.8987 131.954L40.7963 130.791C40.9334 130.735 41.0819 130.712 41.2296 130.724C41.3773 130.737 41.5199 130.784 41.6458 130.862C41.7712 130.94 41.8768 131.045 41.954 131.171C42.0313 131.297 42.0781 131.438 42.0908 131.585L42.5206 136.839C42.5361 137.04 42.4871 137.241 42.3807 137.412C42.2742 137.583 42.116 137.715 41.929 137.79C41.8183 137.836 41.6998 137.86 41.5801 137.861ZM39.79 133.229L40.3917 133.967L40.3159 133.016L39.79 133.229Z" fill="#DDD8CB"/>
</svg>
