<svg width="174" height="172" viewBox="0 0 174 172" fill="none" xmlns="http://www.w3.org/2000/svg">
<path d="M9.21826 99.9893C9.21826 99.9893 21.2934 104.792 21.9551 115.465L134.106 115.999C134.767 105.326 147.008 100.701 147.008 100.701L9.21826 99.9893Z" fill="white"/>
<path d="M133.94 117.244L21.789 116.71C21.1274 116.71 20.6311 116.176 20.6311 115.465C20.1349 105.859 8.88672 101.234 8.72131 101.057C8.05965 100.879 7.89425 99.9893 8.05966 99.4557C8.22508 98.922 8.72133 98.7441 9.05216 98.7441L146.676 99.4557C147.338 99.4557 147.834 99.9893 147.834 100.701C147.834 101.234 147.503 101.768 147.007 101.946C146.842 101.946 135.594 106.571 134.932 116.176C135.097 116.71 134.601 117.244 133.94 117.244ZM22.9469 114.22L132.947 114.753C133.774 108.35 138.406 104.258 141.879 101.946L14.0146 101.234C17.6537 103.547 22.1198 107.816 22.9469 114.22Z" fill="#DDD8CB"/>
<path d="M79.3532 56.4088C82.7334 56.4088 85.4736 53.4621 85.4736 49.8272C85.4736 46.1923 82.7334 43.2456 79.3532 43.2456C75.9731 43.2456 73.2329 46.1923 73.2329 49.8272C73.2329 53.4621 75.9731 56.4088 79.3532 56.4088Z" fill="white"/>
<path d="M79.3534 57.6535C75.3835 57.6535 72.0752 54.0959 72.0752 49.8268C72.0752 45.5576 75.3835 42 79.3534 42C83.3233 42 86.6316 45.5576 86.6316 49.8268C86.6316 54.0959 83.3233 57.6535 79.3534 57.6535ZM79.3534 44.3125C76.5414 44.3125 74.391 46.6249 74.391 49.6489C74.391 52.6729 76.5414 54.9853 79.3534 54.9853C80.6767 54.9853 82 54.4517 82.8271 53.3844C84.8121 51.2498 84.8121 47.8701 82.8271 45.9134C82 44.8461 80.6767 44.3125 79.3534 44.3125Z" fill="#DDD8CB"/>
<path d="M139.398 100.879C134.27 72.4176 109.458 50.7161 79.6838 50.5382C49.9093 50.3603 24.9318 71.7061 19.4731 100.345L139.398 100.879Z" fill="white"/>
<path d="M139.399 102.124L19.4741 101.412C19.1432 101.412 18.8124 101.234 18.647 100.879C18.4816 100.523 18.3162 100.167 18.4816 99.8113C24.1057 70.461 49.7448 49.1152 79.5193 49.1152H79.8501C109.79 49.2931 135.264 70.8167 140.722 100.523C140.722 100.879 140.722 101.234 140.557 101.59C140.061 101.946 139.73 102.124 139.399 102.124ZM20.9628 99.0998L138.076 99.8113C132.452 72.0619 108.136 52.1392 79.8501 51.9613H79.3538C51.2335 51.7835 26.9177 71.5283 20.9628 99.0998Z" fill="#DDD8CB"/>
<path d="M9.23159 96.4369L9.20312 102.485L146.827 103.234L146.856 97.186L9.23159 96.4369Z" fill="white"/>
<path d="M146.842 104.436L9.21798 103.725C8.88715 103.725 8.55632 103.547 8.39091 103.369C8.22549 103.191 8.06006 102.835 8.06006 102.48V96.4317C8.06006 95.7202 8.55632 95.1865 9.21798 95.1865L146.842 95.8981C147.504 95.8981 148 96.4317 148 97.1432V103.191C148 103.903 147.504 104.436 146.842 104.436ZM10.3758 101.234L145.684 101.946V98.3884L10.3758 97.6769V101.234Z" fill="#DDD8CB"/>
<path d="M113.092 116.696L105.497 130.549L113.059 134.694L120.654 120.841L113.092 116.696Z" fill="#DDD8CB"/>
<path d="M113.276 136.025C113.014 136.055 112.745 136.019 112.461 135.853L104.896 131.68C104.262 131.355 104.035 130.52 104.36 129.886C104.36 129.886 104.36 129.886 104.352 129.821L111.982 115.964C112.307 115.331 113.135 115.037 113.776 115.428C113.776 115.428 113.776 115.428 113.841 115.421L121.406 119.593C122.04 119.919 122.333 120.746 121.942 121.387C121.942 121.387 121.942 121.387 121.95 121.453L114.321 135.309C114.104 135.732 113.734 135.973 113.276 136.025ZM107.355 130.008L112.583 132.857L118.889 121.338L113.661 118.489L107.355 130.008Z" fill="#DDD8CB"/>
<path d="M117.012 104.691L109.417 118.544L121.077 124.936L128.672 111.083L117.012 104.691Z" fill="white"/>
<path d="M121.244 126.303C120.983 126.333 120.714 126.298 120.43 126.131L108.838 119.768C108.204 119.442 107.911 118.615 108.302 117.974C108.302 117.974 108.302 117.974 108.294 117.908L115.923 104.052C116.249 103.418 117.076 103.125 117.717 103.516C117.717 103.516 117.717 103.516 117.783 103.508L129.375 109.872C130.008 110.197 130.301 111.025 129.911 111.666C129.911 111.666 129.911 111.666 129.918 111.731L122.289 125.588C122.072 126.01 121.702 126.251 121.244 126.303ZM111.29 118.03L120.552 123.136L126.857 111.617L117.595 106.511L111.29 118.03Z" fill="#DDD8CB"/>
<path d="M105.751 128.137L114.94 133.184C115.646 133.568 115.874 134.403 115.483 135.044L99.4157 164.373C99.0325 165.08 98.1971 165.307 97.5562 164.917L88.3671 159.869C87.6608 159.486 87.433 158.651 87.8237 158.01L103.891 128.68C104.282 128.04 105.11 127.746 105.751 128.137Z" fill="white"/>
<path d="M98.1333 165.912C97.283 166.009 96.4029 165.844 95.6237 165.403L88.9832 161.787C86.9372 160.696 86.2463 158.124 87.3455 156.144L102.047 129.355C103.138 127.309 105.71 126.618 107.69 127.718L114.338 131.398C116.384 132.49 117.075 135.062 115.976 137.042L101.275 163.831C100.675 164.959 99.5068 165.755 98.1333 165.912ZM105.545 129.818C105.087 129.87 104.659 130.184 104.377 130.613L89.6755 157.402C89.5166 157.751 89.4306 158.158 89.5407 158.543C89.6509 158.928 89.8844 159.233 90.2413 159.457L96.9547 163.131C97.661 163.514 98.5618 163.279 99.0104 162.565L113.711 135.777C113.87 135.427 113.956 135.02 113.846 134.635C113.736 134.25 113.503 133.945 113.146 133.721L106.425 129.982C106.148 129.881 105.806 129.788 105.545 129.818Z" fill="#DDD8CB"/>
<path d="M148.092 61.9536C132.969 53.674 113.989 59.2181 105.71 74.3416C97.4299 89.465 102.974 108.445 118.097 116.724C133.221 125.004 152.201 119.46 160.48 104.336C168.752 89.1475 163.216 70.2332 148.092 61.9536Z" fill="white"/>
<path d="M136.679 121.628C118.823 123.664 102.712 110.793 100.675 92.9375C98.6381 75.0817 111.509 58.9706 129.365 56.9338C136.037 56.1727 142.816 57.5196 148.685 60.7593C164.442 69.3642 170.214 89.1792 161.609 104.936C156.503 114.198 147.209 120.426 136.679 121.628ZM129.736 59.6079C113.385 61.4732 101.557 76.2726 103.422 92.6241C105.287 108.976 120.087 120.804 136.438 118.939C152.79 117.073 164.618 102.274 162.753 85.9224C161.656 76.3077 155.975 67.746 147.427 63.0893C142.053 60.1244 135.819 58.9141 129.736 59.6079Z" fill="#DDD8CB"/>
<path d="M135.468 110.436C147.136 109.105 155.515 98.5677 154.185 86.9001C152.854 75.2324 142.316 66.8529 130.649 68.1839C118.981 69.5148 110.601 80.0522 111.932 91.7199C113.263 103.387 123.801 111.767 135.468 110.436Z" fill="white"/>
<circle cx="133" cy="89.0005" r="21" fill="#F3F1EC"/>
<path d="M135.617 111.744C123.256 113.154 112.034 104.23 110.624 91.8688C109.214 79.5071 118.137 68.2856 130.499 66.8755C142.861 65.4653 154.082 74.3888 155.492 86.7506C156.903 99.1123 148.044 110.326 135.617 111.744ZM130.798 69.4917C119.875 70.7377 112.052 80.5747 113.298 91.4975C114.544 102.42 124.381 110.243 135.304 108.997C146.227 107.751 154.049 97.9138 152.803 86.991C151.565 76.1337 141.728 68.3111 130.798 69.4917Z" fill="#DDD8CB"/>
<path d="M18.7986 45.6821C22.001 45.6821 24.5971 43.086 24.5971 39.8835C24.5971 36.6811 22.001 34.085 18.7986 34.085C15.5961 34.085 13 36.6811 13 39.8835C13 43.086 15.5961 45.6821 18.7986 45.6821Z" stroke="#DDD8CB" stroke-width="2" stroke-miterlimit="10"/>
<path d="M151.497 139.899C154.699 139.899 157.295 137.303 157.295 134.101C157.295 130.898 154.699 128.302 151.497 128.302C148.294 128.302 145.698 130.898 145.698 134.101C145.698 137.303 148.294 139.899 151.497 139.899Z" stroke="#DDD8CB" stroke-width="2" stroke-miterlimit="10"/>
<path d="M153.386 44.7105C152.759 44.7105 152.257 44.209 152.257 43.5821V32.5805C152.257 31.9536 152.759 31.4521 153.386 31.4521C154.013 31.4521 154.514 31.9536 154.514 32.5805V43.5821C154.514 44.209 154.013 44.7105 153.386 44.7105Z" fill="#DDD8CB"/>
<path d="M146.742 38.0971C146.742 37.4702 147.243 36.9688 147.87 36.9688H158.872C159.499 36.9688 160 37.4702 160 38.0971C160 38.724 159.499 39.2255 158.872 39.2255H147.87C147.275 39.2255 146.742 38.724 146.742 38.0971Z" fill="#DDD8CB"/>
<path d="M35.6987 154.089C35.0718 154.089 34.5703 153.588 34.5703 152.961V141.959C34.5703 141.333 35.0718 140.831 35.6987 140.831C36.3256 140.831 36.8271 141.333 36.8271 141.959V152.961C36.8271 153.588 36.3256 154.089 35.6987 154.089Z" fill="#DDD8CB"/>
<path d="M29.0547 147.445C29.0547 146.818 29.5562 146.316 30.1831 146.316H41.1847C41.8115 146.316 42.313 146.818 42.313 147.445C42.313 148.072 41.8115 148.573 41.1847 148.573H30.1831C29.5875 148.604 29.0547 148.072 29.0547 147.445Z" fill="#DDD8CB"/>
<path d="M66.7543 29.2583C66.1275 29.2583 65.626 28.7568 65.626 28.13V17.1284C65.626 16.5015 66.1275 16 66.7543 16C67.3812 16 67.8827 16.5015 67.8827 17.1284V28.13C67.8827 28.7568 67.3812 29.2583 66.7543 29.2583Z" fill="#DDD8CB"/>
<path d="M60.1099 22.645C60.1099 22.0181 60.6114 21.5166 61.2382 21.5166H72.2398C72.8667 21.5166 73.3682 22.0181 73.3682 22.645C73.3682 23.2718 72.8667 23.7733 72.2398 23.7733H61.2382C60.6114 23.7733 60.1099 23.2718 60.1099 22.645Z" fill="#DDD8CB"/>
</svg>
