<svg width="148" height="112" viewBox="0 0 148 112" fill="none" xmlns="http://www.w3.org/2000/svg">
<path d="M28.0706 81.0295C37.8406 90.7695 50.4606 97.4795 64.1006 99.7695C77.7406 102.059 93.2306 99.9095 106.221 93.5895C113.201 90.1895 119.581 85.6195 125.081 80.1395C125.781 79.4395 124.461 79.3495 124.041 79.3695C123.111 79.4195 121.821 79.7395 121.141 80.4195C112.101 89.4295 100.581 95.8695 87.9406 98.0295C75.0306 100.229 61.5006 98.0795 49.7906 92.2595C43.2606 89.0095 37.3306 84.6795 32.1706 79.5295C31.3506 78.7195 27.3606 80.3095 28.0806 81.0295H28.0706Z" fill="#32967D"/>
<path d="M26.3006 84.9393C26.3206 84.6493 26.3706 84.3693 26.4306 84.0893C26.4906 83.7793 26.5706 83.4793 26.6706 83.1793C26.7306 82.9993 26.7906 82.8193 26.8506 82.6393C26.8806 82.5493 26.9206 82.4593 26.9506 82.3693C26.8206 82.6993 26.9006 82.4793 26.9906 82.2993C27.1806 81.8693 27.4106 81.4493 27.6606 81.0593C27.7906 80.8593 27.9206 80.6593 28.0706 80.4593C28.1406 80.3693 28.2106 80.2293 28.3006 80.1593C27.9106 80.4693 28.2906 80.1793 28.4006 80.0493C28.5806 79.8493 28.7706 79.6593 28.9706 79.4693C29.0706 79.3693 29.1806 79.2793 29.2806 79.1893C29.3306 79.1393 29.3906 79.0993 29.4406 79.0493C29.7306 78.7993 29.1006 79.2893 29.3906 79.0893C29.6406 78.9193 29.8806 78.7393 30.1406 78.5793C30.2306 78.5293 30.7506 78.2293 30.4106 78.4093C30.0706 78.5893 30.6306 78.3093 30.7206 78.2593C30.9106 78.1693 31.1106 78.0793 31.3106 78.0093C31.3906 77.9793 31.4706 77.9493 31.5606 77.9093C32.0106 77.7293 31.0306 78.0693 31.5106 77.9293C31.9206 77.8093 32.3406 77.6893 32.7606 77.5893C32.8106 77.5793 33.3006 77.5193 32.9106 77.5593C32.5206 77.5993 33.0006 77.5493 33.0806 77.5393C33.3506 77.4993 33.6206 77.4593 33.8906 77.4393C34.1706 77.4093 34.4606 77.3893 34.7406 77.3693C34.8606 77.3693 34.9806 77.3593 35.0906 77.3493C34.7106 77.3693 35.1206 77.3493 35.2706 77.3493C36.2606 77.3493 37.5806 77.0593 38.1306 76.1193C38.6306 75.2493 37.7006 74.6593 36.9106 74.6693C32.8106 74.6993 28.6106 75.6693 25.5106 78.5093C23.8706 80.0193 22.7006 82.0293 22.1506 84.1993C22.0506 84.5993 21.9606 85.0093 21.9306 85.4193C21.8606 86.4093 23.0806 86.6093 23.8506 86.5093C24.6206 86.4093 26.2306 85.9293 26.3006 84.9493V84.9393Z" fill="#32967D"/>
<path d="M130.751 85.0394C130.471 80.8694 127.601 77.2894 123.831 75.6394C121.601 74.6594 119.151 74.3794 116.741 74.3594C115.771 74.3594 114.461 75.1194 114.361 76.1694C114.251 77.3294 115.491 77.6794 116.391 77.6894C116.511 77.6894 116.641 77.6894 116.761 77.6894C116.331 77.6894 116.641 77.6894 116.741 77.6894C117.001 77.7094 117.261 77.7194 117.521 77.7394C118.001 77.7794 118.491 77.8494 118.961 77.9294C119.161 77.9694 119.361 78.0094 119.561 78.0494C119.631 78.0594 119.941 78.1494 119.671 78.0694C119.351 77.9894 119.811 78.1094 119.831 78.1194C120.201 78.2294 120.571 78.3494 120.931 78.4894C121.271 78.6194 121.591 78.7694 121.921 78.9294C122.031 78.9794 122.181 79.1094 121.821 78.8694C121.891 78.9094 121.961 78.9494 122.031 78.9894C122.201 79.0894 122.361 79.1894 122.521 79.2994C123.011 79.6194 123.571 79.9994 123.951 80.4494C123.621 80.0494 123.891 80.3994 123.981 80.4994C124.071 80.5994 124.161 80.6894 124.241 80.7894C124.421 81.0094 124.601 81.2294 124.761 81.4594C125.051 81.8694 125.301 82.3094 125.541 82.7594C125.721 83.0894 125.381 82.3794 125.521 82.7194C125.571 82.8294 125.611 82.9294 125.661 83.0394C125.741 83.2394 125.821 83.4394 125.891 83.6394C126.001 83.9594 126.101 84.2894 126.181 84.6294C126.241 84.8894 126.291 85.1494 126.331 85.4094C126.381 85.7594 126.371 85.8494 126.331 85.3094C126.401 86.3694 127.331 86.9294 128.361 86.8294C129.181 86.7494 130.821 86.1194 130.741 85.0194L130.751 85.0394Z" fill="#32967D"/>
<path d="M84.9407 82.6194C84.2807 81.6394 83.3907 80.7794 82.4107 80.1394C79.8807 78.4694 76.8007 78.5994 74.0207 79.5694C71.8707 80.3194 70.0107 81.6794 68.4707 83.3394C67.8107 84.0394 69.0507 84.1494 69.5107 84.1094C70.4207 84.0294 71.7507 83.7694 72.4107 83.0594C73.0707 82.3494 73.8207 81.6294 74.6707 81.0794C74.7707 81.0194 74.8707 80.9494 74.9807 80.8894C74.8207 80.9694 74.8407 80.9694 75.0207 80.8694C75.1207 80.8194 75.7807 80.5594 75.2607 80.7494L75.4007 80.6994C75.6407 80.6194 75.5907 80.6294 75.2607 80.7394C75.3507 80.7094 75.4507 80.6894 75.5407 80.6594C75.1907 80.7294 75.1307 80.7494 75.3707 80.6994C75.7507 80.6394 74.9107 80.7594 75.5007 80.6894C75.9307 80.6394 75.1207 80.6594 75.5407 80.6894C75.7107 80.6894 75.8707 80.7094 76.0407 80.7194C76.2107 80.7394 76.2007 80.7394 76.0207 80.7194C76.1007 80.7294 76.1807 80.7494 76.2507 80.7694C76.8407 80.9094 77.1807 81.0294 77.6307 81.2594C78.4607 81.6894 79.2107 82.2794 79.8607 82.9594C80.0807 83.1894 80.2807 83.4194 80.4807 83.6694C80.6107 83.8294 80.3707 83.5194 80.5307 83.7294C80.5507 83.7594 80.5707 83.7894 80.5907 83.8094C81.3307 84.9094 85.3207 83.2194 84.9407 82.6494V82.6194Z" fill="#32967D"/>
<path d="M113.29 89.0493C115.13 89.7193 117.4 90.7893 119.37 91.8593C122.71 93.6793 126.4 95.9893 128.38 99.3493C130.48 102.919 129.2 107.249 125.76 109.529C125.58 109.649 125.46 109.709 125.28 109.799C125.38 109.739 125.21 109.819 125.24 109.809C125.03 109.859 125.7 109.869 125.22 109.809C125 109.779 124.93 109.829 124.63 109.809C123.66 109.729 122.7 109.419 121.81 109.029C119.59 108.049 117.62 106.539 115.82 104.949C112.18 101.739 109.31 97.8993 106.05 94.3493C105.3 93.5393 101.27 95.0893 101.96 95.8393C105.1 99.2493 107.87 102.949 111.32 106.079C115.3 109.689 120.06 112.649 125.62 111.209C130.04 110.059 134.79 105.569 133.71 100.599C132.83 96.5293 128.79 93.5893 125.46 91.5393C122.76 89.8793 119.85 88.4493 116.87 87.3693C115.99 87.0493 114.62 87.5293 113.83 87.9193C113.37 88.1493 112.41 88.7493 113.3 89.0693L113.29 89.0493Z" fill="#32967D"/>
<path d="M106.9 92.8594C111.81 94.5394 116.54 97.5994 120.05 101.399C120.98 102.409 125.11 100.849 124.1 99.7594C121.54 96.9894 118.42 94.7894 115.11 93.0094C113.6 92.1994 112.02 91.4294 110.39 90.8694C109.41 90.5394 108.2 90.8194 107.32 91.3194C106.84 91.5994 105.9 92.5094 106.89 92.8494L106.9 92.8594Z" fill="#32967D"/>
<path d="M30.86 1.13989L30.28 1.83989C30.18 1.92989 29.97 2.18989 29.63 2.61989C29.29 3.03989 29.07 3.34989 28.96 3.53989C28.37 4.28989 28.08 4.70989 28.07 4.80989C28.06 4.90989 29.13 6.07989 31.28 8.32989C33.51 10.5899 34.95 11.9999 35.6 12.5599C36.33 13.1199 37.32 13.7799 38.55 14.5299C39.87 15.3799 41.11 16.0299 42.29 16.4999C43.46 16.9699 44.72 17.4899 46.06 18.0499C47.49 18.5199 48.26 18.7499 48.34 18.7499C48.51 18.7499 48.62 18.7999 48.65 18.8899C48.68 18.9799 48.6 19.2199 48.39 19.5899L48.21 20.1499H47.3C46.87 20.0599 46.06 19.9599 44.85 19.8699C43.65 19.6799 42.52 19.4499 41.46 19.1699C40.4 18.8899 39.24 18.5099 37.98 18.0399C36.81 17.5699 35.8 17.1499 34.96 16.7699C34.21 16.3899 33.47 15.9199 32.74 15.3599C32 14.8899 30.7 13.8599 28.84 12.2599C26.74 10.4699 25.57 9.48989 25.32 9.29989L24.72 8.73989L23.7 10.0099C23.02 10.8599 22.39 11.5599 21.82 12.1199C21.15 12.7799 20.41 13.3899 19.58 13.9499C18.74 14.6099 17.68 15.3599 16.39 16.2099C14.91 17.2399 13.53 18.0899 12.26 18.7499C10.97 19.5999 9.69 20.3499 8.42 21.0099C7.78 21.3899 6.73 21.9499 5.28 22.6999L3.92 23.3999L3.03 23.1199L2 22.9799L2.69 22.5599C3.33 22.1799 4.3 21.5699 5.59 20.7299C7.25 19.5999 8.55 18.6199 9.5 17.7699C10.62 16.9199 11.75 15.8899 12.9 14.6699C14.13 13.5399 15.08 12.5599 15.76 11.7099C16.44 10.8599 17.87 8.88989 20.06 5.78989L23.31 1.13989H30.86ZM28.71 15.3099L28.45 16.7899C28.36 17.8199 28.2 18.6199 27.98 19.1899C27.75 19.8499 27.52 20.4099 27.31 20.8799L26.85 21.6599H33.62L33.7 20.7399L33.77 19.9599H39.37L38.57 29.0499C38.04 35.1599 37.61 38.5899 37.28 39.3399C37.03 40.1899 36.71 40.8399 36.33 41.3099C36.03 41.7799 35.69 42.1599 35.32 42.4399C34.94 42.8199 34.52 43.0999 34.07 43.2899C33.62 43.4799 33.13 43.5699 32.61 43.5699L31.84 43.4299L31.94 42.2999L31.91 41.1699H14.34L13.56 50.0499L12.8 58.7899H19.18L19.06 60.1999L18.94 61.6099H11.78L11.33 62.3099C11.03 62.7799 10.67 63.1799 10.25 63.5099C9.83 63.8399 9.44 64.0699 9.08 64.2099C8.72 64.3499 8.24 64.4199 7.63 64.4199H6.72L8.67 42.1499L10.61 19.9499H16.08L16.14 20.7299L16.06 21.6499H22.57L22.84 18.6199C23.02 16.5499 23.14 15.4699 23.19 15.3799C23.24 15.2899 24.18 15.2599 26 15.3099H28.74H28.71ZM15.24 30.8199H32.83L33.39 24.4099H15.8L15.24 30.8199ZM15.06 33.6399C15 33.7799 14.91 34.5999 14.78 36.1099L14.57 38.5099H32.16L32.38 35.9699L32.6 33.4299H23.87C18.05 33.4299 15.11 33.4999 15.06 33.6399ZM37.08 46.2599L39.1 46.9599C39.18 47.0499 38.74 47.5699 37.79 48.5099C36.74 49.6399 36.07 50.2999 35.79 50.4799C35.51 50.6699 35.05 50.9499 34.41 51.3299C33.78 51.6099 33.33 51.7499 33.07 51.7499C32.8 51.8399 32.83 52.0299 33.15 52.3099C33.31 52.3999 33.48 52.4999 33.65 52.5899C34.39 53.0599 35.16 53.6199 35.98 54.2799C36.71 54.8399 37.44 55.4999 38.15 56.2499L39.09 57.3799L37.04 59.9199C35.76 61.6099 35.08 62.4599 34.99 62.4599C34.9 62.4599 34.39 61.8499 33.46 60.6299C32.52 59.4099 31.62 58.2799 30.76 57.2499C29.97 56.3999 29.17 55.6099 28.36 54.8499C27.48 53.9999 26.79 53.3899 26.31 53.0199C25.58 52.4599 24.76 51.8899 23.85 51.3299C22.85 50.8599 21.92 50.5299 21.07 50.3399C20.56 50.2499 20.24 50.1499 20.12 50.0599C20 49.9699 19.94 49.8699 19.95 49.7799C19.97 49.4999 20.38 49.3599 21.16 49.3599C22.04 49.2699 23.08 49.2699 24.29 49.3599C25.5 49.4499 26.7 49.6399 27.89 49.9199L29.53 50.4799L30.36 49.9199C30.91 49.5399 31.43 49.1199 31.9 48.6499C32.29 48.1799 32.82 47.5199 33.51 46.6799C34.2 45.7399 34.63 45.3199 34.79 45.4099C34.95 45.4999 35.71 45.7899 37.06 46.2599H37.08Z" fill="#32967D"/>
<path d="M131.13 1L130.3 10.45L129.47 19.89H144.71L144.59 21.3L144.47 22.64H129.23L128.62 29.62L128.02 36.53H141.85L141.73 37.94L141.62 39.21H127.79L127.21 45.84C126.88 48.57 126.67 50.4 126.59 51.34C126.51 52.28 126.36 52.94 126.14 53.31C125.9 53.87 125.66 54.44 125.43 55C125.2 55.47 124.93 55.85 124.63 56.13L124.16 56.69H145.88L145.76 58.1L145.64 59.51H100.65L100.77 58.1L100.89 56.69H121.34L122.1 47.95L122.86 39.21H110.02L110.27 37.94L110.39 36.53H123.23L123.83 29.62L124.44 22.64H114.42L113.3 24.12C112.76 24.97 111.92 25.91 110.8 26.94C109.78 27.88 108.72 28.73 107.62 29.48C106.72 30.14 105.75 30.73 104.72 31.24C103.69 31.76 103.08 32.02 102.89 32.02C102.7 32.02 102.64 31.64 102.71 30.89L102.81 29.76L103.71 29.2C104.3 28.92 104.95 28.45 105.67 27.79C106.28 27.23 106.96 26.52 107.69 25.68C108.52 24.74 109.17 23.85 109.62 23C110.18 21.97 110.65 20.91 111.02 19.83C111.4 18.75 111.76 16.71 112.12 13.7L112.51 9.19H118.71L118.33 11.87C118.17 13.66 117.91 15.02 117.55 15.96C117.29 16.81 116.98 17.65 116.62 18.5L116.07 19.91H124.54L125.51 10.47L126.34 1.02H131.13V1Z" fill="#32967D"/>
<path d="M76.0502 5.64989L75.2102 15.2399C74.6502 21.6299 74.2502 25.1599 74.0002 25.8099C73.7502 26.5599 73.5002 27.2699 73.2502 27.9199C72.8102 28.6699 72.3202 29.3799 71.8002 30.0299C71.3702 30.6899 70.9002 31.2099 70.4002 31.5799C69.9002 31.8599 69.3202 32.0499 68.6602 32.1399H67.5302L68.1002 25.6499L68.6702 19.1699L67.5602 20.5799C66.9102 21.5199 66.1302 22.3699 65.2202 23.1199C64.4102 23.7799 63.5302 24.3899 62.5902 24.9499C61.6502 25.5099 60.8302 25.9799 60.1402 26.3599C59.5502 26.6399 58.6702 27.0199 57.5002 27.4899C56.5302 27.8699 56.0202 28.0499 55.9702 28.0499C55.9202 28.0499 55.9702 27.1999 56.1202 25.5099L56.3502 22.8299L57.2102 22.6899C57.7902 22.4999 58.8502 22.1699 60.4002 21.6999C62.2302 21.1399 63.7402 20.5699 64.9202 20.0099C66.1902 19.4499 66.9302 19.0699 67.1302 18.8799C67.3302 18.6899 67.6202 18.6499 67.9902 18.7399C68.3602 18.8299 68.5602 18.8799 68.6102 18.8799C68.6602 18.8799 68.8202 17.2799 69.1002 14.0899L69.5302 9.15989H55.4302L55.5402 7.88989L55.6602 6.54989H69.7602L69.8002 6.05989L69.9802 5.63989H76.0402L76.0502 5.64989ZM61.6702 12.1299C62.4702 12.5999 63.2202 13.1599 63.9202 13.8199C64.5202 14.4799 65.0602 15.2799 65.5402 16.2199C66.0302 17.0699 66.2702 17.5399 66.2602 17.6299C66.2502 17.7199 65.6302 17.8399 64.4002 17.9799C63.1702 18.1199 62.5302 18.1699 62.4802 18.1199C62.4402 18.0699 62.2702 17.5799 61.9802 16.6399C61.7802 15.6999 61.4802 14.8499 61.0702 14.0999C60.7502 13.4399 60.4602 12.9699 60.2102 12.6899C59.9602 12.4099 59.7102 12.1699 59.5002 11.9899C59.2802 11.7999 59.2302 11.6099 59.3402 11.4299C59.4502 11.2399 59.6902 11.1999 60.0602 11.2899C60.5202 11.3799 61.0602 11.6699 61.6802 12.1399L61.6702 12.1299ZM79.8002 32.1399L78.9802 33.4099C78.5302 34.2599 78.1002 34.8699 77.6902 35.2399C77.2802 35.6099 76.2802 36.3199 74.6802 37.3499H84.2702L84.3102 36.9299L84.4802 36.5799H90.4002L89.5602 46.2399C88.9902 52.7199 88.5802 56.3899 88.3202 57.2399C87.9602 58.0899 87.5702 58.8399 87.1402 59.4999C86.7002 60.2499 86.2202 60.8599 85.7102 61.3299C85.2902 61.7999 84.8902 62.0999 84.5002 62.2499C84.1102 62.3899 83.6402 62.4599 83.0702 62.4599H82.0802L82.1802 61.3299L82.2902 60.0599H72.5602C66.0802 60.0599 62.8302 60.1099 62.8202 60.1999C62.8102 60.2899 62.6002 60.5799 62.1802 61.0499C61.7602 61.5199 61.3102 61.8999 60.8102 62.1799C60.4202 62.3699 59.8902 62.4599 59.2402 62.4599H58.3902L59.5102 49.6299L60.6502 36.5899H66.7102L66.6702 37.0799L66.6502 37.3599H70.0302L70.9402 36.6599C71.4502 36.1899 71.8702 35.7199 72.1902 35.2499C72.5002 34.8699 72.9302 34.2599 73.4802 33.4199L74.1602 32.1499H79.8002V32.1399ZM65.5702 49.7599L65.3402 52.4399C65.1802 54.3199 65.0302 55.4899 64.8902 55.9599C64.7502 56.4299 64.6302 56.7599 64.5202 56.9499L66.1902 57.2299H82.5402L82.8602 53.5599L83.1902 49.7499H65.5702V49.7599ZM66.4102 40.0999L65.8102 46.9399H83.4302L84.0302 40.0999H66.4102ZM95.0802 5.64989L94.2302 15.3799C93.6502 21.9599 93.2402 25.6499 92.9802 26.4499C92.7202 27.2499 92.3702 28.0199 91.9302 28.7799C91.4902 29.5299 91.0102 30.1899 90.4902 30.7499C89.9702 31.3099 89.5102 31.6899 89.1202 31.8799C88.6302 32.0699 88.1502 32.1599 87.6902 32.1599L86.8602 32.0199L87.2702 25.6799L87.8402 19.1999L87.2202 19.8999C86.9902 20.3699 86.5102 21.0299 85.7802 21.8699C85.0502 22.7199 84.2302 23.4399 83.3302 24.0599C82.4302 24.6699 81.4902 25.2099 80.5102 25.6799C79.4302 26.2399 78.3502 26.7599 77.2702 27.2299L75.2202 28.0799L75.4402 25.5399L75.6702 22.8599L77.5502 22.2999C78.8002 22.0199 79.9502 21.6899 81.0202 21.3099C81.9002 20.9299 82.8702 20.5599 83.9402 20.1799C84.6302 19.7999 85.3202 19.4299 86.0102 19.0499C86.5002 18.7699 86.8502 18.6299 87.0302 18.6299C87.1102 18.7199 87.3002 18.8199 87.5702 18.9099L87.9302 18.0599L88.2802 14.1099L88.7102 9.17989H78.0002L78.1102 7.90989L78.2302 6.56989H88.9402L88.9802 6.07989L89.0202 5.65989H95.0802V5.64989ZM80.5802 11.8499C81.3902 12.2299 82.0602 12.6999 82.5702 13.2599C83.2602 13.9199 83.7702 14.5299 84.1002 15.0899C84.5102 15.7499 84.8402 16.3099 85.0802 16.7799C85.3202 17.2499 85.4402 17.5299 85.4302 17.6299C85.4202 17.7299 84.8002 17.8399 83.5702 17.9799C82.3302 18.1199 81.7002 18.1399 81.6602 18.0499C81.6202 17.9599 81.5302 17.6299 81.3902 17.0599C81.1702 16.3999 80.9102 15.5999 80.6102 14.6599C80.1302 13.7199 79.6802 12.9699 79.2602 12.3999C78.7502 11.8399 78.5202 11.5099 78.5702 11.4099C78.6302 11.3199 78.7502 11.2699 78.9402 11.2699C79.2202 11.2699 79.7702 11.4599 80.5802 11.8299V11.8499Z" fill="#32967D"/>
</svg>
